<?xml version="1.0" encoding="UTF-8"?>
<!DOCTYPE svg PUBLIC "-//W3C//DTD SVG 1.1//EN" "http://www.w3.org/Graphics/SVG/1.1/DTD/svg11.dtd">
<!-- Creator: CorelDRAW -->
<svg xmlns="http://www.w3.org/2000/svg" xml:space="preserve" width="1.99999in" height="1.99999in" version="1.1" style="shape-rendering:geometricPrecision; text-rendering:geometricPrecision; image-rendering:optimizeQuality; fill-rule:evenodd; clip-rule:evenodd"
viewBox="0 0 2000 2000"
 xmlns:xlink="http://www.w3.org/1999/xlink">
 <defs>
  <style type="text/css">
   <![CDATA[
    .fil0 {fill:none}
    .fil4 {fill:#333333}
    .fil8 {fill:#A73C07}
    .fil5 {fill:#C06000}
    .fil7 {fill:#E6520A}
    .fil3 {fill:#E6E6E6}
    .fil6 {fill:#FF700D}
    .fil2 {fill:#FF871B}
    .fil1 {fill:#FFA721}
   ]]>
  </style>
 </defs>
 <rect class="fil0" width="2000" height="2000"/>
 <g id="Layer_x0020_1">
  <metadata id="CorelCorpID_0Corel-Layer"/>
  <path class="fil1" d="M1502 1230c-566,0 -438,0 -1005,0 -82,0 -149,-67 -149,-149l0 -787c0,-81 67,-147 148,-147l367 0c81,0 147,66 147,147l0 65 492 0c83,0 150,67 150,149l0 573c0,82 -67,149 -150,149z"/>
  <path class="fil2" d="M957 412l-370 0c-14,0 -26,-11 -26,-26 0,-15 12,-27 26,-27l397 0 0 0 519 0c82,0 149,67 149,149l0 88c0,15 -12,27 -27,27l-520 0c-82,0 -148,-66 -148,-148l0 -63z"/>
  <g id="_334320136">
   <path class="fil3" d="M1167 1016l-334 0c-15,0 -27,-12 -27,-26l0 -142c0,-93 76,-169 169,-169l50 0c93,0 168,76 168,169l0 142c1,14 -11,26 -26,26zm-307 -53l280 0 0 -115c0,-64 -51,-115 -115,-115l-50 -1c-64,0 -115,52 -115,116l0 115 0 0z"/>
   <path class="fil4" d="M762 1741c-14,0 -26,-12 -26,-27l0 -113c0,-10 5,-19 13,-23l53 -31 0 -102c0,-14 12,-26 26,-26 15,0 27,12 27,26l0 118c0,9 -5,18 -13,23l-53 30 0 98c0,15 -12,27 -27,27z"/>
   <path class="fil4" d="M1238 1741c-15,0 -27,-12 -27,-27l0 -98 -53 -30c-8,-5 -13,-14 -13,-23l0 -118c0,-14 12,-26 26,-26 15,0 27,12 27,26l0 102 53 31c8,4 13,13 13,23l0 113c0,15 -12,27 -26,27z"/>
   <path class="fil4" d="M1000 1654c-15,0 -27,-12 -27,-27l0 -182c0,-14 12,-26 27,-26 15,0 27,12 27,26l0 182c0,15 -12,27 -27,27z"/>
   <path class="fil5" d="M762 1853c-45,0 -83,-37 -83,-83 0,-45 38,-83 83,-83 46,0 83,38 83,83 0,46 -37,83 -83,83z"/>
   <path class="fil5" d="M1000 1767c-46,0 -83,-37 -83,-83 0,-46 37,-83 83,-83 46,0 83,37 83,83 0,46 -37,83 -83,83z"/>
   <path class="fil5" d="M1238 1853c-46,0 -83,-37 -83,-83 0,-45 37,-83 83,-83 45,0 82,38 82,83 0,46 -37,83 -82,83z"/>
   <path class="fil6" d="M1172 1472l-344 0c-52,0 -95,-43 -95,-95l0 -319c0,-52 43,-95 95,-95l344 0c52,0 95,43 95,95l0 319c0,52 -43,95 -95,95z"/>
   <path class="fil7" d="M1000 1364c-52,0 -95,-42 -95,-95 0,-52 43,-94 95,-94 52,0 95,42 95,94 0,53 -43,95 -95,95z"/>
   <path class="fil8" d="M1000 1337c-37,0 -67,-31 -67,-68 0,-27 16,-51 40,-61l0 -90c0,-14 12,-26 27,-26 15,0 27,12 27,26l0 90c23,10 40,34 40,61 0,37 -30,68 -67,68z"/>
  </g>
 </g>
</svg>
